{
  "accessors": [
    {
      "bufferView": 2,
      "componentType": 5126,
      "count": 6301,
      "max": [
        0.2754715085029602,
        0.2754715085029602,
        0.4425676763057709
      ],
      "min": [
        -0.2754715085029602,
        -0.2754715383052826,
        -0.40389224886894226
      ],
      "type": "VEC3"
    },
    {
      "bufferView": 2,
      "byteOffset": 75612,
      "componentType": 5126,
      "count": 6301,
      "max": [
        0.9989256858825684,
        0.998925507068634,
        1.0
      ],
      "min": [
        -0.998925507068634,
        -0.9989258646965027,
        -1.0
      ],
      "type": "VEC3"
    },
    {
      "bufferView": 3,
      "componentType": 5126,
      "count": 6301,
      "max": [
        0.9999250769615173,
        0.9999868869781494,
        0.9978232979774475,
        1.0
      ],
      "min": [
        -0.9999284744262695,
        -0.9999969005584717,
        -0.9654050469398499,
        1.0
      ],
      "type": "VEC4"
    },
    {
      "bufferView": 1,
      "componentType": 5126,
      "count": 6301,
      "max": [
        0.9997500777244568,
        0.8892605900764465
      ],
      "min": [
        0.0029992691706866026,
        0.00041958948713727295
      ],
      "type": "VEC2"
    },
    {
      "bufferView": 1,
      "byteOffset": 50408,
      "componentType": 5126,
      "count": 6301,
      "max": [
        0.9997500777244568,
        0.8892605900764465
      ],
      "min": [
        0.0029992691706866026,
        0.00041958948713727295
      ],
      "type": "VEC2"
    },
    {
      "bufferView": 1,
      "byteOffset": 100816,
      "componentType": 5126,
      "count": 6301,
      "max": [
        0.9997500777244568,
        0.8892605900764465
      ],
      "min": [
        0.0029992691706866026,
        0.00041958948713727295
      ],
      "type": "VEC2"
    },
    {
      "bufferView": 0,
      "componentType": 5125,
      "count": 32256,
      "type": "SCALAR"
    },
    {
      "bufferView": 2,
      "byteOffset": 151224,
      "componentType": 5126,
      "count": 11078,
      "max": [
        0.29435473680496216,
        0.29435473680496216,
        0.09102597087621689
      ],
      "min": [
        -0.29435473680496216,
        -0.29435479640960693,
        -0.12958240509033203
      ],
      "type": "VEC3"
    },
    {
      "bufferView": 2,
      "byteOffset": 284160,
      "componentType": 5126,
      "count": 11078,
      "max": [
        1.0,
        1.0,
        1.0
      ],
      "min": [
        -1.0,
        -1.0,
        -1.0
      ],
      "type": "VEC3"
    },
    {
      "bufferView": 3,
      "byteOffset": 100816,
      "componentType": 5126,
      "count": 11078,
      "max": [
        0.9998775124549866,
        0.9999992847442627,
        0.9996947646141052,
        1.0
      ],
      "min": [
        -0.9999810457229614,
        -0.9998283386230469,
        -0.9995359182357788,
        -1.0
      ],
      "type": "VEC4"
    },
    {
      "bufferView": 1,
      "byteOffset": 151224,
      "componentType": 5126,
      "count": 11078,
      "max": [
        0.8268876671791077,
        0.8571830987930298
      ],
      "min": [
        0.00025008589727804065,
        0.0002500972477719188
      ],
      "type": "VEC2"
    },
    {
      "bufferView": 1,
      "byteOffset": 239848,
      "componentType": 5126,
      "count": 11078,
      "max": [
        0.8268876671791077,
        0.8571830987930298
      ],
      "min": [
        0.00025008589727804065,
        0.0002500972477719188
      ],
      "type": "VEC2"
    },
    {
      "bufferView": 0,
      "byteOffset": 129024,
      "componentType": 5125,
      "count": 55872,
      "type": "SCALAR"
    },
    {
      "bufferView": 2,
      "byteOffset": 417096,
      "componentType": 5126,
      "count": 1206,
      "max": [
        0.025602705776691437,
        0.01262282021343708,
        0.04289180412888527
      ],
      "min": [
        -0.025602735579013824,
        -0.09114185720682144,
        -0.011383237317204475
      ],
      "type": "VEC3"
    },
    {
      "bufferView": 2,
      "byteOffset": 431568,
      "componentType": 5126,
      "count": 1206,
      "max": [
        0.9999422430992126,
        0.9999973773956299,
        1.0
      ],
      "min": [
        -0.9999423027038574,
        -1.0,
        -1.0
      ],
      "type": "VEC3"
    },
    {
      "bufferView": 3,
      "byteOffset": 278064,
      "componentType": 5126,
      "count": 1206,
      "max": [
        1.0,
        0.9977956414222717,
        0.9964646697044373,
        1.0
      ],
      "min": [
        -1.0,
        -1.0,
        -0.9992626905441284,
        1.0
      ],
      "type": "VEC4"
    },
    {
      "bufferView": 1,
      "byteOffset": 328472,
      "componentType": 5126,
      "count": 1206,
      "max": [
        0.07128342241048813,
        0.06771925091743469
      ],
      "min": [
        0.00036041386192664504,
        0.0002791695878840983
      ],
      "type": "VEC2"
    },
    {
      "bufferView": 1,
      "byteOffset": 338120,
      "componentType": 5126,
      "count": 1206,
      "max": [
        0.07128342241048813,
        0.06771925091743469
      ],
      "min": [
        0.00036041386192664504,
        0.0002791695878840983
      ],
      "type": "VEC2"
    },
    {
      "bufferView": 0,
      "byteOffset": 352512,
      "componentType": 5125,
      "count": 4368,
      "type": "SCALAR"
    },
    {
      "bufferView": 2,
      "byteOffset": 446040,
      "componentType": 5126,
      "count": 6301,
      "max": [
        0.2754715085029602,
        0.2754715085029602,
        0.4425676763057709
      ],
      "min": [
        -0.2754715085029602,
        -0.2754715383052826,
        -0.40389224886894226
      ],
      "type": "VEC3"
    },
    {
      "bufferView": 2,
      "byteOffset": 521652,
      "componentType": 5126,
      "count": 6301,
      "max": [
        0.9989256858825684,
        0.998925507068634,
        1.0
      ],
      "min": [
        -0.998925507068634,
        -0.9989258646965027,
        -1.0
      ],
      "type": "VEC3"
    },
    {
      "bufferView": 3,
      "byteOffset": 297360,
      "componentType": 5126,
      "count": 6301,
      "max": [
        0.9999250769615173,
        0.9999868869781494,
        0.9978232979774475,
        1.0
      ],
      "min": [
        -0.9999284744262695,
        -0.9999969005584717,
        -0.9654050469398499,
        1.0
      ],
      "type": "VEC4"
    },
    {
      "bufferView": 1,
      "byteOffset": 347768,
      "componentType": 5126,
      "count": 6301,
      "max": [
        0.9997500777244568,
        0.8892605900764465
      ],
      "min": [
        0.0029992691706866026,
        0.00041958948713727295
      ],
      "type": "VEC2"
    },
    {
      "bufferView": 1,
      "byteOffset": 398176,
      "componentType": 5126,
      "count": 6301,
      "max": [
        0.9997500777244568,
        0.8892605900764465
      ],
      "min": [
        0.0029992691706866026,
        0.00041958948713727295
      ],
      "type": "VEC2"
    },
    {
      "bufferView": 0,
      "byteOffset": 369984,
      "componentType": 5125,
      "count": 32256,
      "type": "SCALAR"
    },
    {
      "bufferView": 2,
      "byteOffset": 597264,
      "componentType": 5126,
      "count": 11078,
      "max": [
        0.29435473680496216,
        0.29435473680496216,
        0.09102597087621689
      ],
      "min": [
        -0.29435473680496216,
        -0.29435479640960693,
        -0.12958240509033203
      ],
      "type": "VEC3"
    },
    {
      "bufferView": 2,
      "byteOffset": 730200,
      "componentType": 5126,
      "count": 11078,
      "max": [
        1.0,
        1.0,
        1.0
      ],
      "min": [
        -1.0,
        -1.0,
        -1.0
      ],
      "type": "VEC3"
    },
    {
      "bufferView": 3,
      "byteOffset": 398176,
      "componentType": 5126,
      "count": 11078,
      "max": [
        0.9998775124549866,
        0.9999992847442627,
        0.9996947646141052,
        1.0
      ],
      "min": [
        -0.9999810457229614,
        -0.9998283386230469,
        -0.9995359182357788,
        -1.0
      ],
      "type": "VEC4"
    },
    {
      "bufferView": 1,
      "byteOffset": 448584,
      "componentType": 5126,
      "count": 11078,
      "max": [
        0.8268876671791077,
        0.8571830987930298
      ],
      "min": [
        0.00025008589727804065,
        0.0002500972477719188
      ],
      "type": "VEC2"
    },
    {
      "bufferView": 1,
      "byteOffset": 537208,
      "componentType": 5126,
      "count": 11078,
      "max": [
        0.8268876671791077,
        0.8571830987930298
      ],
      "min": [
        0.00025008589727804065,
        0.0002500972477719188
      ],
      "type": "VEC2"
    },
    {
      "bufferView": 0,
      "byteOffset": 499008,
      "componentType": 5125,
      "count": 55872,
      "type": "SCALAR"
    },
    {
      "bufferView": 2,
      "byteOffset": 863136,
      "componentType": 5126,
      "count": 1206,
      "max": [
        0.025602705776691437,
        0.01262282021343708,
        0.04289180412888527
      ],
      "min": [
        -0.025602735579013824,
        -0.09114185720682144,
        -0.011383237317204475
      ],
      "type": "VEC3"
    },
    {
      "bufferView": 2,
      "byteOffset": 877608,
      "componentType": 5126,
      "count": 1206,
      "max": [
        0.9999422430992126,
        0.9999973773956299,
        1.0
      ],
      "min": [
        -0.9999423027038574,
        -1.0,
        -1.0
      ],
      "type": "VEC3"
    },
    {
      "bufferView": 3,
      "byteOffset": 575424,
      "componentType": 5126,
      "count": 1206,
      "max": [
        1.0,
        0.9977956414222717,
        0.9964646697044373,
        1.0
      ],
      "min": [
        -1.0,
        -1.0,
        -0.9992626905441284,
        1.0
      ],
      "type": "VEC4"
    },
    {
      "bufferView": 1,
      "byteOffset": 625832,
      "componentType": 5126,
      "count": 1206,
      "max": [
        0.07128342241048813,
        0.06771925091743469
      ],
      "min": [
        0.00036041386192664504,
        0.0002791695878840983
      ],
      "type": "VEC2"
    },
    {
      "bufferView": 1,
      "byteOffset": 635480,
      "componentType": 5126,
      "count": 1206,
      "max": [
        0.07128342241048813,
        0.06771925091743469
      ],
      "min": [
        0.00036041386192664504,
        0.0002791695878840983
      ],
      "type": "VEC2"
    },
    {
      "bufferView": 0,
      "byteOffset": 722496,
      "componentType": 5125,
      "count": 4368,
      "type": "SCALAR"
    }
  ],
  "asset": {
    "extras": {
      "author": "G6_MLN131 (https://sketchfab.com/G6_MLN131)",
      "license": "CC-BY-4.0 (http://creativecommons.org/licenses/by/4.0/)",
      "source": "https://sketchfab.com/3d-models/mau-10-e751868e0f52491c8f960549415d5337",
      "title": "Mẫu 10"
    },
    "generator": "Sketchfab-16.82.0",
    "version": "2.0"
  },
  "bufferViews": [
    {
      "buffer": 0,
      "byteLength": 739968,
      "name": "floatBufferViews",
      "target": 34963
    },
    {
      "buffer": 0,
      "byteLength": 645128,
      "byteOffset": 739968,
      "byteStride": 8,
      "name": "floatBufferViews",
      "target": 34962
    },
    {
      "buffer": 0,
      "byteLength": 892080,
      "byteOffset": 1385096,
      "byteStride": 12,
      "name": "floatBufferViews",
      "target": 34962
    },
    {
      "buffer": 0,
      "byteLength": 594720,
      "byteOffset": 2277176,
      "byteStride": 16,
      "name": "floatBufferViews",
      "target": 34962
    }
  ],
  "buffers": [
    {
      "byteLength": 2871896,
      "uri": "scene.bin"
    }
  ],
  "images": [
    {
      "uri": "textures/paper.001_baseColor.png"
    },
    {
      "uri": "textures/paper.001_metallicRoughness.png"
    },
    {
      "uri": "textures/paper.001_normal.png"
    },
    {
      "uri": "textures/paper_metallicRoughness.png"
    }
  ],
  "materials": [
    {
      "doubleSided": true,
      "name": "paper.001",
      "normalTexture": {
        "index": 2
      },
      "pbrMetallicRoughness": {
        "baseColorTexture": {
          "index": 0
        },
        "metallicFactor": 0.0,
        "metallicRoughnessTexture": {
          "index": 1
        }
      }
    },
    {
      "doubleSided": true,
      "name": "paper",
      "normalTexture": {
        "index": 2
      },
      "occlusionTexture": {
        "index": 3
      },
      "pbrMetallicRoughness": {
        "baseColorTexture": {
          "index": 0
        },
        "metallicFactor": 0.0,
        "metallicRoughnessTexture": {
          "index": 3
        }
      }
    }
  ],
  "meshes": [
    {
      "name": "Cube_paper.001_0",
      "primitives": [
        {
          "attributes": {
            "NORMAL": 1,
            "POSITION": 0,
            "TANGENT": 2,
            "TEXCOORD_0": 3,
            "TEXCOORD_1": 4,
            "TEXCOORD_2": 5
          },
          "indices": 6,
          "material": 0,
          "mode": 4
        }
      ]
    },
    {
      "name": "Cube.002_paper_0",
      "primitives": [
        {
          "attributes": {
            "NORMAL": 8,
            "POSITION": 7,
            "TANGENT": 9,
            "TEXCOORD_0": 10,
            "TEXCOORD_1": 11
          },
          "indices": 12,
          "material": 1,
          "mode": 4
        }
      ]
    },
    {
      "name": "Cube.005_paper_0",
      "primitives": [
        {
          "attributes": {
            "NORMAL": 14,
            "POSITION": 13,
            "TANGENT": 15,
            "TEXCOORD_0": 16,
            "TEXCOORD_1": 17
          },
          "indices": 18,
          "material": 1,
          "mode": 4
        }
      ]
    },
    {
      "name": "Cube.004_paper_0",
      "primitives": [
        {
          "attributes": {
            "NORMAL": 20,
            "POSITION": 19,
            "TANGENT": 21,
            "TEXCOORD_0": 22,
            "TEXCOORD_1": 23
          },
          "indices": 24,
          "material": 1,
          "mode": 4
        }
      ]
    },
    {
      "name": "Cube.001_paper_0",
      "primitives": [
        {
          "attributes": {
            "NORMAL": 26,
            "POSITION": 25,
            "TANGENT": 27,
            "TEXCOORD_0": 28,
            "TEXCOORD_1": 29
          },
          "indices": 30,
          "material": 1,
          "mode": 4
        }
      ]
    },
    {
      "name": "Cube.003_paper_0",
      "primitives": [
        {
          "attributes": {
            "NORMAL": 32,
            "POSITION": 31,
            "TANGENT": 33,
            "TEXCOORD_0": 34,
            "TEXCOORD_1": 35
          },
          "indices": 36,
          "material": 1,
          "mode": 4
        }
      ]
    }
  ],
  "nodes": [
    {
      "children": [
        1
      ],
      "matrix": [
        1.0,
        0.0,
        0.0,
        0.0,
        0.0,
        2.220446049250313e-16,
        -1.0,
        0.0,
        0.0,
        1.0,
        2.220446049250313e-16,
        0.0,
        0.0,
        0.0,
        0.0,
        1.0
      ],
      "name": "Sketchfab_model"
    },
    {
      "children": [
        2
      ],
      "matrix": [
        0.009999999776482582,
        0.0,
        0.0,
        0.0,
        0.0,
        0.0,
        0.009999999776482582,
        0.0,
        0.0,
        -0.009999999776482582,
        0.0,
        0.0,
        0.0,
        0.0,
        0.0,
        1.0
      ],
      "name": "9f451d1439984ddf8db753d6128efa2d.fbx"
    },
    {
      "children": [
        3,
        5,
        9
      ],
      "name": "RootNode"
    },
    {
      "children": [
        4
      ],
      "matrix": [
        44.97620743040742,
        -51.05777103083026,
        -73.28193318126027,
        0.0,
        17.82725743584927,
        85.52992437044517,
        -48.64998385921507,
        0.0,
        87.51759274663085,
        8.816760118520811,
        47.57032374124994,
        0.0,
        -20.75745964050293,
        24.090967178344727,
        27.623430252075195,
        1.0
      ],
      "name": "Cube"
    },
    {
      "mesh": 0,
      "name": "Cube_paper.001_0"
    },
    {
      "children": [
        6,
        7
      ],
      "matrix": [
        69.44682364662087,
        3.162014029176634e-05,
        -71.95232560185455,
        0.0,
        -71.95232560183871,
        -4.9052998184588165e-05,
        -69.44682364662715,
        0.0,
        -5.725396038995523e-05,
        99.99999237058844,
        -1.1314323725126235e-05,
        0.0,
        41.403507232666016,
        13.170726776123047,
        -7.28758430480957,
        1.0
      ],
      "name": "Cube.002"
    },
    {
      "mesh": 1,
      "name": "Cube.002_paper_0"
    },
    {
      "children": [
        8
      ],
      "matrix": [
        1.1146215200424185,
        -4.641147755002351e-08,
        -4.2632564383834034e-14,
        0.0,
        4.163878253574046e-08,
        1.0000001192092887,
        -4.263256933368281e-14,
        0.0,
        3.8248468736591246e-14,
        4.2632562658865675e-14,
        1.0,
        0.0,
        2.9802322387695313e-08,
        -0.16035182774066925,
        0.07325974106788635,
        1.0
      ],
      "name": "Cube.005"
    },
    {
      "mesh": 2,
      "name": "Cube.005_paper_0"
    },
    {
      "children": [
        10,
        11
      ],
      "matrix": [
        79.24735162926653,
        -3.2697554330773926e-06,
        60.9906325573639,
        0.0,
        60.99063255736237,
        -1.8808548896132038e-05,
        -79.24735162926555,
        0.0,
        1.4062647535340034e-05,
        99.99999999999818,
        -1.2911032376550224e-05,
        0.0,
        -14.303360939025879,
        40.33970260620117,
        -25.201160430908203,
        1.0
      ],
      "name": "Cube.004"
    },
    {
      "mesh": 3,
      "name": "Cube.004_paper_0"
    },
    {
      "children": [
        12,
        13
      ],
      "matrix": [
        -0.27820815062862736,
        0.9605208092091494,
        -1.162406352813242e-14,
        0.0,
        -0.9605208092091494,
        -0.27820815062862736,
        7.46484512248794e-14,
        0.0,
        6.846748155977949e-14,
        3.193296246890529e-14,
        1.0,
        0.0,
        2.9802322387695313e-08,
        -8.195638656616211e-08,
        0.5104070901870728,
        1.0
      ],
      "name": "Cube.001"
    },
    {
      "mesh": 4,
      "name": "Cube.001_paper_0"
    },
    {
      "children": [
        14
      ],
      "matrix": [
        1.114621400833129,
        4.811946613392238e-08,
        1.5025287111321943e-14,
        0.0,
        -4.317113066190477e-08,
        0.9999999999999991,
        -3.730349362078782e-14,
        0.0,
        -1.3480172635403727e-14,
        3.730349303883356e-14,
        1.0,
        0.0,
        -1.4901161193847656e-08,
        -0.16035178303718567,
        0.07325973361730576,
        1.0
      ],
      "name": "Cube.003"
    },
    {
      "mesh": 5,
      "name": "Cube.003_paper_0"
    }
  ],
  "samplers": [
    {
      "magFilter": 9729,
      "minFilter": 9987,
      "wrapS": 10497,
      "wrapT": 10497
    }
  ],
  "scene": 0,
  "scenes": [
    {
      "name": "Sketchfab_Scene",
      "nodes": [
        0
      ]
    }
  ],
  "textures": [
    {
      "sampler": 0,
      "source": 0
    },
    {
      "sampler": 0,
      "source": 1
    },
    {
      "sampler": 0,
      "source": 2
    },
    {
      "sampler": 0,
      "source": 3
    }
  ]
}
