{
  "accessors": [
    {
      "bufferView": 2,
      "componentType": 5126,
      "count": 2753,
      "max": [
        204.46353149414063,
        93.89139556884766,
        394.8341979980469
      ],
      "min": [
        -204.46353149414063,
        -391.39508056640625,
        -394.8341979980469
      ],
      "type": "VEC3"
    },
    {
      "bufferView": 2,
      "byteOffset": 33036,
      "componentType": 5126,
      "count": 2753,
      "max": [
        1.0,
        1.0,
        1.0
      ],
      "min": [
        -1.0,
        -1.0,
        -1.0
      ],
      "type": "VEC3"
    },
    {
      "bufferView": 3,
      "componentType": 5126,
      "count": 2753,
      "max": [
        1.0,
        1.0,
        1.0,
        1.0
      ],
      "min": [
        -1.0,
        -1.0,
        -1.0,
        -1.0
      ],
      "type": "VEC4"
    },
    {
      "bufferView": 1,
      "componentType": 5126,
      "count": 2753,
      "max": [
        0.9990249872207642,
        0.9996749758720398
      ],
      "min": [
        0.00032500000088475645,
        0.0031079999171197414
      ],
      "type": "VEC2"
    },
    {
      "bufferView": 0,
      "componentType": 5125,
      "count": 10554,
      "type": "SCALAR"
    },
    {
      "bufferView": 2,
      "byteOffset": 66072,
      "componentType": 5126,
      "count": 3437,
      "max": [
        201.6217498779297,
        413.6775207519531,
        341.66143798828125
      ],
      "min": [
        -201.6217498779297,
        12.386919975280762,
        -357.7479248046875
      ],
      "type": "VEC3"
    },
    {
      "bufferView": 2,
      "byteOffset": 107316,
      "componentType": 5126,
      "count": 3437,
      "max": [
        1.0,
        1.0,
        1.0
      ],
      "min": [
        -1.0,
        -1.0,
        -1.0
      ],
      "type": "VEC3"
    },
    {
      "bufferView": 3,
      "byteOffset": 44048,
      "componentType": 5126,
      "count": 3437,
      "max": [
        1.0,
        1.0,
        1.0,
        1.0
      ],
      "min": [
        -1.0,
        -1.0,
        -1.0,
        -1.0
      ],
      "type": "VEC4"
    },
    {
      "bufferView": 1,
      "byteOffset": 22024,
      "componentType": 5126,
      "count": 3437,
      "max": [
        0.997065007686615,
        0.9996740221977234
      ],
      "min": [
        0.0003260000084992498,
        0.0009749999735504389
      ],
      "type": "VEC2"
    },
    {
      "bufferView": 0,
      "byteOffset": 42216,
      "componentType": 5125,
      "count": 11694,
      "type": "SCALAR"
    },
    {
      "bufferView": 2,
      "byteOffset": 148560,
      "componentType": 5126,
      "count": 1857,
      "max": [
        159.9694061279297,
        51.71635437011719,
        414.6566467285156
      ],
      "min": [
        -159.9694061279297,
        -267.6877136230469,
        -5.1523919105529785
      ],
      "type": "VEC3"
    },
    {
      "bufferView": 2,
      "byteOffset": 170844,
      "componentType": 5126,
      "count": 1857,
      "max": [
        0.9999898076057434,
        1.0,
        0.9997695684432983
      ],
      "min": [
        -0.9999958276748657,
        -1.0,
        -0.9993382096290588
      ],
      "type": "VEC3"
    },
    {
      "bufferView": 3,
      "byteOffset": 99040,
      "componentType": 5126,
      "count": 1857,
      "max": [
        0.9999734163284302,
        0.9999305009841919,
        0.9999317526817322,
        1.0
      ],
      "min": [
        -0.9999834299087524,
        -0.9999805092811584,
        -0.9999977350234985,
        -1.0
      ],
      "type": "VEC4"
    },
    {
      "bufferView": 1,
      "byteOffset": 49520,
      "componentType": 5126,
      "count": 1857,
      "max": [
        0.9826549887657166,
        0.997651994228363
      ],
      "min": [
        0.0003260000084992498,
        0.000754999986384064
      ],
      "type": "VEC2"
    },
    {
      "bufferView": 0,
      "byteOffset": 88992,
      "componentType": 5125,
      "count": 7164,
      "type": "SCALAR"
    }
  ],
  "asset": {
    "extras": {
      "author": "Fredrik (https://sketchfab.com/kird3rf)",
      "license": "CC-BY-4.0 (http://creativecommons.org/licenses/by/4.0/)",
      "source": "https://sketchfab.com/3d-models/coffee-maker-9ccda2fddba846e6ba97eb774b8a09c6",
      "title": "Coffee maker"
    },
    "generator": "Sketchfab-12.68.0",
    "version": "2.0"
  },
  "bufferViews": [
    {
      "buffer": 0,
      "byteLength": 117648,
      "name": "floatBufferViews",
      "target": 34963
    },
    {
      "buffer": 0,
      "byteLength": 64376,
      "byteOffset": 117648,
      "byteStride": 8,
      "name": "floatBufferViews",
      "target": 34962
    },
    {
      "buffer": 0,
      "byteLength": 193128,
      "byteOffset": 182024,
      "byteStride": 12,
      "name": "floatBufferViews",
      "target": 34962
    },
    {
      "buffer": 0,
      "byteLength": 128752,
      "byteOffset": 375152,
      "byteStride": 16,
      "name": "floatBufferViews",
      "target": 34962
    }
  ],
  "buffers": [
    {
      "byteLength": 503904,
      "uri": "scene.bin"
    }
  ],
  "images": [
    {
      "uri": "textures/kanne_baseColor.png"
    },
    {
      "uri": "textures/kanne_metallicRoughness.png"
    },
    {
      "uri": "textures/kanne_normal.png"
    },
    {
      "uri": "textures/vannbeh_takt_baseColor.png"
    },
    {
      "uri": "textures/vannbeh_takt_metallicRoughness.png"
    },
    {
      "uri": "textures/vannbeh_takt_normal.png"
    },
    {
      "uri": "textures/Base_baseColor.jpeg"
    },
    {
      "uri": "textures/Base_metallicRoughness.png"
    },
    {
      "uri": "textures/Base_emissive.jpeg"
    },
    {
      "uri": "textures/Base_normal.png"
    }
  ],
  "materials": [
    {
      "alphaMode": "BLEND",
      "doubleSided": true,
      "name": "kanne",
      "normalTexture": {
        "index": 2
      },
      "occlusionTexture": {
        "index": 1
      },
      "pbrMetallicRoughness": {
        "baseColorTexture": {
          "index": 0
        },
        "metallicRoughnessTexture": {
          "index": 1
        }
      }
    },
    {
      "alphaMode": "BLEND",
      "doubleSided": true,
      "name": "vannbeh_takt",
      "normalTexture": {
        "index": 5
      },
      "occlusionTexture": {
        "index": 4
      },
      "pbrMetallicRoughness": {
        "baseColorTexture": {
          "index": 3
        },
        "metallicRoughnessTexture": {
          "index": 4
        },
        "roughnessFactor": 0.8
      }
    },
    {
      "doubleSided": true,
      "emissiveFactor": [
        1.0,
        1.0,
        1.0
      ],
      "emissiveTexture": {
        "index": 8
      },
      "name": "Base",
      "normalTexture": {
        "index": 9
      },
      "occlusionTexture": {
        "index": 7
      },
      "pbrMetallicRoughness": {
        "baseColorTexture": {
          "index": 6
        },
        "metallicRoughnessTexture": {
          "index": 7
        }
      }
    }
  ],
  "meshes": [
    {
      "name": "defaultMaterial",
      "primitives": [
        {
          "attributes": {
            "NORMAL": 1,
            "POSITION": 0,
            "TANGENT": 2,
            "TEXCOORD_0": 3
          },
          "indices": 4,
          "material": 2,
          "mode": 4
        }
      ]
    },
    {
      "name": "defaultMaterial",
      "primitives": [
        {
          "attributes": {
            "NORMAL": 6,
            "POSITION": 5,
            "TANGENT": 7,
            "TEXCOORD_0": 8
          },
          "indices": 9,
          "material": 1,
          "mode": 4
        }
      ]
    },
    {
      "name": "defaultMaterial",
      "primitives": [
        {
          "attributes": {
            "NORMAL": 11,
            "POSITION": 10,
            "TANGENT": 12,
            "TEXCOORD_0": 13
          },
          "indices": 14,
          "material": 0,
          "mode": 4
        }
      ]
    }
  ],
  "nodes": [
    {
      "children": [
        1
      ],
      "matrix": [
        1.0,
        0.0,
        0.0,
        0.0,
        0.0,
        2.220446049250313e-16,
        -1.0,
        0.0,
        0.0,
        1.0,
        2.220446049250313e-16,
        0.0,
        0.0,
        0.0,
        0.0,
        1.0
      ],
      "name": "Sketchfab_model"
    },
    {
      "children": [
        2,
        4,
        6
      ],
      "matrix": [
        1.0,
        0.0,
        0.0,
        0.0,
        0.0,
        -4.371139006309477e-08,
        0.999999999999999,
        0.0,
        0.0,
        -0.999999999999999,
        -4.371139006309477e-08,
        0.0,
        0.0,
        0.0,
        0.0,
        1.0
      ],
      "name": "Collada visual scene group"
    },
    {
      "children": [
        3
      ],
      "name": "Base"
    },
    {
      "mesh": 0,
      "name": "defaultMaterial"
    },
    {
      "children": [
        5
      ],
      "name": "vannbeh_trakt"
    },
    {
      "mesh": 1,
      "name": "defaultMaterial"
    },
    {
      "children": [
        7
      ],
      "name": "kanne"
    },
    {
      "mesh": 2,
      "name": "defaultMaterial"
    }
  ],
  "samplers": [
    {
      "magFilter": 9729,
      "minFilter": 9987,
      "wrapS": 10497,
      "wrapT": 10497
    }
  ],
  "scene": 0,
  "scenes": [
    {
      "name": "Sketchfab_Scene",
      "nodes": [
        0
      ]
    }
  ],
  "textures": [
    {
      "sampler": 0,
      "source": 0
    },
    {
      "sampler": 0,
      "source": 1
    },
    {
      "sampler": 0,
      "source": 2
    },
    {
      "sampler": 0,
      "source": 3
    },
    {
      "sampler": 0,
      "source": 4
    },
    {
      "sampler": 0,
      "source": 5
    },
    {
      "sampler": 0,
      "source": 6
    },
    {
      "sampler": 0,
      "source": 7
    },
    {
      "sampler": 0,
      "source": 8
    },
    {
      "sampler": 0,
      "source": 9
    }
  ]
}
